<svg width="66" height="66" viewBox="0 0 66 66" fill="none" xmlns="http://www.w3.org/2000/svg">
<mask id="path-1-inside-1_499_1759" fill="white">
<path d="M0 8C0 3.58172 3.58172 0 8 0H58C62.4183 0 66 3.58172 66 8V58C66 62.4183 62.4183 66 58 66H8C3.58172 66 0 62.4183 0 58V8Z"/>
</mask>
<path d="M8 0V1H58V0V-1H8V0ZM66 8H65V58H66H67V8H66ZM58 66V65H8V66V67H58V66ZM0 58H1V8H0H-1V58H0ZM8 66V65C4.13401 65 1 61.866 1 58H0H-1C-1 62.9706 3.02944 67 8 67V66ZM66 58H65C65 61.866 61.866 65 58 65V66V67C62.9706 67 67 62.9706 67 58H66ZM58 0V1C61.866 1 65 4.13401 65 8H66H67C67 3.02944 62.9706 -1 58 -1V0ZM8 0V-1C3.02944 -1 -1 3.02944 -1 8H0H1C1 4.13401 4.13401 1 8 1V0Z" fill="white" mask="url(#path-1-inside-1_499_1759)"/>
<path d="M25.8905 40.1121H22.0117V43.9909M43.9909 43.9909H40.1121V40.1121M40.1121 25.8905H43.9909V22.0117M22.0117 22.0117H25.8905V25.8905" stroke="white" stroke-width="0.969697" stroke-linecap="round" stroke-linejoin="round"/>
<path d="M25.8885 22.2007C24.0995 23.3775 22.6311 24.9806 21.6155 26.8657C20.5999 28.7509 20.0689 30.8589 20.0703 33.0003C20.0703 33.6596 20.1182 34.3061 20.2138 34.9396M34.9387 45.7857C34.2961 45.882 33.6496 45.9299 32.9993 45.9292C30.858 45.9306 28.7499 45.3996 26.8647 44.384C24.9796 43.3684 23.3765 41.9 22.1998 40.111M45.7847 31.0609C45.8798 31.6944 45.9276 32.3409 45.9283 33.0003C45.9283 37.5142 43.6155 41.488 40.1101 43.7998M31.0599 20.2158C31.7025 20.1188 32.3489 20.0703 32.9993 20.0703C37.5132 20.0703 41.487 22.384 43.7988 25.8885" stroke="white" stroke-width="0.969697" stroke-linecap="round" stroke-linejoin="round"/>
</svg>
