<svg width="66" height="66" viewBox="0 0 66 66" fill="none" xmlns="http://www.w3.org/2000/svg">
<mask id="path-1-inside-1_499_1766" fill="white">
<path d="M0 8C0 3.58172 3.58172 0 8 0H58C62.4183 0 66 3.58172 66 8V58C66 62.4183 62.4183 66 58 66H8C3.58172 66 0 62.4183 0 58V8Z"/>
</mask>
<path d="M8 0V1H58V0V-1H8V0ZM66 8H65V58H66H67V8H66ZM58 66V65H8V66V67H58V66ZM0 58H1V8H0H-1V58H0ZM8 66V65C4.13401 65 1 61.866 1 58H0H-1C-1 62.9706 3.02944 67 8 67V66ZM66 58H65C65 61.866 61.866 65 58 65V66V67C62.9706 67 67 62.9706 67 58H66ZM58 0V1C61.866 1 65 4.13401 65 8H66H67C67 3.02944 62.9706 -1 58 -1V0ZM8 0V-1C3.02944 -1 -1 3.02944 -1 8H0H1C1 4.13401 4.13401 1 8 1V0Z" fill="white" mask="url(#path-1-inside-1_499_1766)"/>
<path d="M32.9999 36.8787C34.0286 36.8787 35.0152 36.47 35.7426 35.7426C36.47 35.0152 36.8787 34.0286 36.8787 32.9999C36.8787 31.9712 36.47 30.9846 35.7426 30.2572C35.0152 29.5298 34.0286 29.1211 32.9999 29.1211C31.9712 29.1211 30.9846 29.5298 30.2572 30.2572C29.5298 30.9846 29.1211 31.9712 29.1211 32.9999C29.1211 34.0286 29.5298 35.0152 30.2572 35.7426C30.9846 36.47 31.9712 36.8787 32.9999 36.8787Z" stroke="white" stroke-width="0.969697"/>
<path d="M35.2821 20.2672C34.8079 20.0703 34.2057 20.0703 33.0004 20.0703C31.7951 20.0703 31.1929 20.0703 30.7187 20.2662C30.0848 20.529 29.5812 21.0326 29.3184 21.6664C29.1992 21.9554 29.1517 22.2929 29.1332 22.7826C29.1258 23.1369 29.0281 23.4835 28.8494 23.7896C28.6707 24.0956 28.417 24.3511 28.1121 24.5319C27.8028 24.7049 27.4545 24.7965 27.1001 24.7982C26.7456 24.7999 26.3965 24.7116 26.0855 24.5416C25.6511 24.3118 25.3369 24.1857 25.0256 24.144C24.3468 24.0548 23.6583 24.239 23.1153 24.656C22.708 24.9702 22.4064 25.4909 21.8033 26.5343C21.2011 27.5777 20.8986 28.0994 20.8326 28.6095C20.7433 29.2895 20.9274 29.9773 21.3446 30.5217C21.5357 30.7699 21.8033 30.9784 22.2183 31.2393C22.8302 31.6233 23.2229 32.2778 23.2229 32.9993C23.2229 33.7207 22.8302 34.3753 22.2183 34.7573C21.8033 35.0201 21.5347 35.2286 21.3446 35.4769C20.9274 36.0213 20.7433 36.709 20.8326 37.3891C20.9005 37.8982 21.2011 38.4209 21.8023 39.4643C22.4064 40.5076 22.7071 41.0284 23.1143 41.3426C23.6588 41.7598 24.3465 41.9439 25.0266 41.8546C25.3369 41.8129 25.6511 41.6868 26.0855 41.457C26.3965 41.287 26.7456 41.1987 27.1001 41.2004C27.4545 41.2021 27.8028 41.2937 28.1121 41.4667C28.7366 41.8284 29.1071 42.4946 29.1332 43.216C29.1517 43.7076 29.1982 44.0432 29.3175 44.3312C29.4476 44.6453 29.6383 44.9307 29.8787 45.1711C30.1191 45.4115 30.4046 45.6023 30.7187 45.7324C31.1929 45.9283 31.7951 45.9283 33.0004 45.9283C34.2057 45.9283 34.8079 45.9283 35.2821 45.7324C35.9159 45.4696 36.4196 44.966 36.6823 44.3321C36.8016 44.0432 36.8491 43.7076 36.8675 43.216C36.8937 42.4946 37.2651 41.8274 37.8886 41.4667C38.1977 41.2928 38.5461 41.2007 38.9007 41.199C39.2553 41.1973 39.6045 41.2861 39.9153 41.457C40.3497 41.6868 40.6639 41.8129 40.9742 41.8546C41.6543 41.9439 42.342 41.7598 42.8864 41.3426C43.2937 41.0293 43.5943 40.5076 44.1975 39.4643C44.7997 38.4209 45.1022 37.8992 45.1681 37.3891C45.2575 36.709 45.0734 36.0213 44.6561 35.4769C44.4651 35.2286 44.1975 35.0201 43.7824 34.7593C43.4791 34.5756 43.2277 34.3175 43.0519 34.0096C42.8761 33.7016 42.7818 33.3539 42.7778 32.9993C42.7778 32.2778 43.1706 31.6233 43.7824 31.2412C44.1975 30.9784 44.4661 30.7699 44.6561 30.5217C45.0734 29.9773 45.2575 29.2895 45.1681 28.6095C45.1003 28.1004 44.7997 27.5777 44.1984 26.5343C43.5943 25.4909 43.2937 24.9702 42.8864 24.656C42.342 24.2388 41.6543 24.0546 40.9742 24.144C40.6639 24.1857 40.3497 24.3118 39.9134 24.5416C39.6026 24.7112 39.2538 24.7993 38.8997 24.7976C38.5457 24.7959 38.1978 24.7045 37.8886 24.5319C37.5844 24.3504 37.3311 24.0948 37.1526 23.7889C36.974 23.4829 36.8759 23.1367 36.8675 22.7826C36.8491 22.2909 36.8026 21.9554 36.6833 21.6674C36.5532 21.3533 36.3625 21.0679 36.1221 20.8274C35.8816 20.587 35.5962 20.3973 35.2821 20.2672Z" stroke="white" stroke-width="0.969697"/>
</svg>
