<svg width="66" height="66" viewBox="0 0 66 66" fill="none" xmlns="http://www.w3.org/2000/svg">
<mask id="path-1-inside-1_499_1773" fill="white">
<path d="M0 8C0 3.58172 3.58172 0 8 0H58C62.4183 0 66 3.58172 66 8V58C66 62.4183 62.4183 66 58 66H8C3.58172 66 0 62.4183 0 58V8Z"/>
</mask>
<path d="M8 0V1H58V0V-1H8V0ZM66 8H65V58H66H67V8H66ZM58 66V65H8V66V67H58V66ZM0 58H1V8H0H-1V58H0ZM8 66V65C4.13401 65 1 61.866 1 58H0H-1C-1 62.9706 3.02944 67 8 67V66ZM66 58H65C65 61.866 61.866 65 58 65V66V67C62.9706 67 67 62.9706 67 58H66ZM58 0V1C61.866 1 65 4.13401 65 8H66H67C67 3.02944 62.9706 -1 58 -1V0ZM8 0V-1C3.02944 -1 -1 3.02944 -1 8H0H1C1 4.13401 4.13401 1 8 1V0Z" fill="white" mask="url(#path-1-inside-1_499_1773)"/>
<path d="M30.3335 23.667L33.0005 21M27.6675 38.333L38.3335 27.667M33.0005 45L35.6675 42.333M39.0005 42.333C39.8845 42.333 40.7322 41.9818 41.3573 41.3568C41.9823 40.7317 42.3335 39.884 42.3335 39C42.3335 38.116 41.9823 37.2683 41.3573 36.6432C40.7322 36.0182 39.8845 35.667 39.0005 35.667C38.1165 35.667 37.2688 36.0182 36.6437 36.6432C36.0187 37.2683 35.6675 38.116 35.6675 39C35.6675 39.884 36.0187 40.7317 36.6437 41.3568C37.2688 41.9818 38.1165 42.333 39.0005 42.333ZM27.0005 30.333C27.4382 30.333 27.8716 30.2468 28.276 30.0793C28.6804 29.9118 29.0478 29.6663 29.3573 29.3568C29.6668 29.0473 29.9123 28.6799 30.0798 28.2755C30.2473 27.8711 30.3335 27.4377 30.3335 27C30.3335 26.5623 30.2473 26.1289 30.0798 25.7245C29.9123 25.3201 29.6668 24.9527 29.3573 24.6432C29.0478 24.3337 28.6804 24.0882 28.276 23.9207C27.8716 23.7532 27.4382 23.667 27.0005 23.667C26.1165 23.667 25.2688 24.0182 24.6437 24.6432C24.0187 25.2683 23.6675 26.116 23.6675 27C23.6675 27.884 24.0187 28.7317 24.6437 29.3568C25.2688 29.9818 26.1165 30.333 27.0005 30.333ZM24.3335 45C25.2176 45 26.0655 44.6488 26.6906 44.0236C27.3158 43.3985 27.667 42.5506 27.667 41.6665C27.667 40.7824 27.3158 39.9345 26.6906 39.3094C26.0655 38.6842 25.2176 38.333 24.3335 38.333C23.4494 38.333 22.6015 38.6842 21.9764 39.3094C21.3512 39.9345 21 40.7824 21 41.6665C21 42.5506 21.3512 43.3985 21.9764 44.0236C22.6015 44.6488 23.4494 45 24.3335 45ZM41.6675 27.667C42.5516 27.667 43.3995 27.3158 44.0246 26.6906C44.6498 26.0655 45.001 25.2176 45.001 24.3335C45.001 23.4494 44.6498 22.6015 44.0246 21.9764C43.3995 21.3512 42.5516 21 41.6675 21C40.7834 21 39.9355 21.3512 39.3104 21.9764C38.6852 22.6015 38.334 23.4494 38.334 24.3335C38.334 25.2176 38.6852 26.0655 39.3104 26.6906C39.9355 27.3158 40.7834 27.667 41.6675 27.667Z" stroke="white" stroke-linecap="round" stroke-linejoin="round"/>
</svg>
