<svg width="16" height="15" viewBox="0 0 16 15" fill="none" xmlns="http://www.w3.org/2000/svg">
<path d="M8.8175 13.8176L15.0675 7.56757C15.1257 7.50949 15.1717 7.44058 15.2032 7.36466C15.2347 7.28883 15.2508 7.20749 15.2508 7.12532C15.2508 7.04324 15.2347 6.96191 15.2032 6.88599C15.1717 6.81016 15.1257 6.74124 15.0675 6.68316L8.8175 0.433158C8.70025 0.315883 8.54117 0.25 8.37533 0.25C8.2095 0.25 8.05042 0.315883 7.93317 0.433158C7.81592 0.550433 7.75 0.7095 7.75 0.87535C7.75 1.0412 7.81592 1.20026 7.93317 1.31753L13.1167 6.50041H0.875C0.709242 6.50041 0.550267 6.56624 0.433058 6.68349C0.31585 6.80066 0.25 6.95966 0.25 7.12541C0.25 7.29116 0.31585 7.45016 0.433058 7.56733C0.550267 7.68458 0.709242 7.75041 0.875 7.75041H13.1166L7.93317 12.9332C7.87508 12.9912 7.829 13.0602 7.79758 13.1361C7.76617 13.2119 7.75 13.2932 7.75 13.3753C7.75 13.4575 7.76617 13.5388 7.79758 13.6147C7.829 13.6905 7.87508 13.7595 7.93317 13.8176C7.99125 13.8756 8.06017 13.9217 8.136 13.9531C8.21192 13.9845 8.29325 14.0007 8.37533 14.0007C8.4575 14.0007 8.53875 13.9845 8.61467 13.9531C8.6905 13.9217 8.7595 13.8756 8.8175 13.8176Z" fill="white" stroke="white" stroke-width="0.5"/>
</svg>
