<svg width="16" height="16" viewBox="0 0 16 16" fill="none" xmlns="http://www.w3.org/2000/svg">
<path d="M0.888672 0.5H4C4.21712 0.5 4.38856 0.671584 4.38867 0.888672C4.38867 2.0471 4.57473 3.16936 4.91895 4.21777V4.21875C4.96268 4.35606 4.92988 4.50954 4.82422 4.61523V4.61621L2.86816 6.57617L2.61133 6.83301L2.77734 7.15625C4.10947 9.7651 6.23881 11.8994 8.85352 13.2275L9.17773 13.3926L9.43359 13.1357L11.3896 11.1758L11.3887 11.1748C11.4944 11.0693 11.6489 11.0373 11.7861 11.0811V11.0801C12.8345 11.4244 13.9524 11.6113 15.1113 11.6113C15.3284 11.6114 15.5 11.7829 15.5 12V15.1113C15.4999 15.3283 15.3283 15.4999 15.1113 15.5C7.0408 15.5 0.5 8.9592 0.5 0.888672C0.500114 0.671656 0.671656 0.500114 0.888672 0.5Z" fill="white" stroke="white"/>
</svg>
