<svg width="88" height="72" viewBox="0 0 88 72" fill="none" xmlns="http://www.w3.org/2000/svg">
<g clip-path="url(#clip0_549_1140)">
<path d="M64.4074 49.4048C60.3496 49.4048 56.4385 48.753 52.7719 47.547C51.6474 47.1885 50.36 47.4493 49.4637 48.3455L42.2933 55.5322C33.0533 50.8389 25.5244 43.2937 20.8148 34.07L27.9852 26.8833C28.8815 25.987 29.1422 24.6996 28.7837 23.5752C27.5778 19.9085 26.9259 15.9811 26.9259 11.9233C26.9259 10.1144 25.4756 8.66406 23.6667 8.66406H12.2593C10.4504 8.66406 9 10.1144 9 11.9233C9 42.5278 33.803 67.3307 64.4074 67.3307C66.2163 67.3307 67.6667 65.8804 67.6667 64.0715V52.6641C67.6667 50.8552 66.2163 49.4048 64.4074 49.4048Z" fill="white" stroke="white" stroke-width="2"/>
<path d="M44 31.0849V15.3712C44 14.9545 44.1793 14.5548 44.4986 14.2601C44.8178 13.9654 45.2508 13.7999 45.7023 13.7999C46.1538 13.7999 46.5868 13.9654 46.906 14.2601C47.2253 14.5548 47.4046 14.9545 47.4046 15.3712V27.29L64.9257 11.1167C65.0838 10.9708 65.2716 10.8549 65.4783 10.7759C65.6849 10.6969 65.9064 10.6563 66.1301 10.6562C66.3537 10.6562 66.5752 10.6969 66.7819 10.7759C66.9885 10.8549 67.1763 10.9708 67.3345 11.1167C67.4926 11.2627 67.6181 11.4361 67.7037 11.6268C67.7893 11.8176 67.8333 12.022 67.8333 12.2285C67.8333 12.435 67.7893 12.6394 67.7037 12.8302C67.6181 13.0209 67.4926 13.1942 67.3345 13.3402L49.8134 29.5135H62.7254C63.1769 29.5135 63.6099 29.6791 63.9292 29.9738C64.2484 30.2684 64.4278 30.6681 64.4278 31.0849C64.4278 31.5016 64.2484 31.9013 63.9292 32.196C63.6099 32.4907 63.1769 32.6562 62.7254 32.6562H45.7023C45.2508 32.6562 44.8178 32.4907 44.4986 32.196C44.1793 31.9013 44 31.5016 44 31.0849Z" fill="white" stroke="white" stroke-width="2"/>
</g>
<defs>
<clipPath id="clip0_549_1140">
<rect width="88" height="72" fill="white"/>
</clipPath>
</defs>
</svg>
