<svg width="168" height="21" viewBox="0 0 168 21" fill="none" xmlns="http://www.w3.org/2000/svg">
<mask id="mask0_1036_5330" style="mask-type:luminance" maskUnits="userSpaceOnUse" x="0" y="0" width="168" height="21">
<path d="M168 0H0V21H168V0Z" fill="white"/>
</mask>
<g mask="url(#mask0_1036_5330)">
<path d="M61.3006 7.56503C64.6229 8.15887 71.9623 9.47149 72.3499 9.5731C72.6629 9.6617 73.2216 9.822 73.4941 10.3916C73.7979 11.0274 73.6755 11.9951 73.1195 13.3553C71.3686 17.6371 67.9828 17.6371 66.3544 17.6371H52.1541C51.912 17.6371 51.7132 17.5225 51.5926 17.3127C51.4388 17.0312 51.4508 16.648 51.6165 16.3739C51.9322 15.8528 52.7322 14.6092 52.8215 14.4693L52.9807 14.2241H64.4259C65.7579 14.2241 67.344 13.8801 67.436 12.2645L67.4029 12.2599C65.0261 11.8599 57.1582 10.5399 55.7 10.3357C55.3558 10.2891 55.1118 10.1343 54.9765 9.878C54.7353 9.42022 54.8642 8.68933 55.3705 7.64613C57.0035 4.26857 59.3408 2.625 62.5213 2.625H73.7252L73.3671 3.39877C73.2603 3.62624 73.067 3.96558 72.8958 4.26484L72.5174 4.9314C72.2523 5.40592 71.9338 5.95315 71.3704 6.08087C70.9967 6.16571 70.6045 6.1163 70.2253 6.1163C69.7825 6.1163 69.3397 6.12003 68.8969 6.12283C67.5281 6.12935 66.1657 6.10791 64.7978 6.07994C63.8155 6.05943 62.6639 6.09206 61.876 6.77261C61.6256 6.98889 61.4323 7.26297 61.3006 7.56689M91.7126 13.0597C91.2882 14.2903 90.6135 15.4696 89.646 16.3441C89.1866 16.7599 88.6315 17.1365 88.0544 17.3574C87.3409 17.6306 86.483 17.6455 85.73 17.6539C83.5658 17.6772 81.4071 17.6381 79.2429 17.6381C77.2923 17.6381 75.9014 17.0759 75.1069 15.9693C73.5733 13.827 74.5067 10.0504 75.4889 6.99915C76.1177 5.05073 77.6025 3.63277 79.5439 3.07901C80.8907 2.69492 82.3608 2.77975 83.749 2.77975C84.7312 2.77975 85.9067 2.78908 87.247 2.80772C89.622 2.84128 91.1999 3.47149 92.0698 4.72817C93.1993 6.36614 93.0823 9.08926 91.7126 13.0597ZM84.2267 14.4152C85.359 14.4152 86.3256 14.0209 86.9184 13.0029C87.3262 12.3028 87.5076 11.4954 87.7303 10.7142C87.977 9.8481 88.2845 8.98672 88.3259 8.08616C88.348 7.6191 88.2863 7.12127 87.9991 6.75583C87.7708 6.4659 87.4229 6.29156 87.0666 6.20766C86.7094 6.12376 86.3394 6.12189 85.973 6.12096C84.9945 6.11723 84.0159 6.1135 83.0365 6.10884C82.4252 6.10604 81.7891 6.10884 81.2414 6.38479C80.7655 6.62438 80.401 7.05135 80.1441 7.52214C79.8873 7.99293 79.7271 8.51127 79.5688 9.02494C79.2696 9.9954 78.9695 10.9706 78.8112 11.9755C78.755 12.3298 78.7173 12.6934 78.7744 13.0476C78.8314 13.4019 78.9925 13.7515 79.2742 13.9706C79.6341 14.2512 80.1202 14.2782 80.574 14.2941C81.7891 14.3369 83.0107 14.4152 84.2267 14.4152ZM120.445 2.83383L123.455 17.6381H119.306L118.662 14.3528H118.64C118.036 14.3481 115.906 14.3351 114.097 14.3351C112.831 14.3351 112.016 14.3397 111.605 14.3528C109.744 14.4078 108.397 16.855 108.145 17.3463L107.996 17.6381H91.7485L95.8118 2.75365L100.452 2.80959L97.3629 14.2549L105.127 14.3043C105.929 13.2024 111.315 5.82357 112.291 4.59952C113.461 3.13308 114.734 2.83383 116.286 2.83383H120.445ZM112.573 11.1067L112.466 11.253L117.995 11.2046L116.966 6.27292C116.87 6.26639 116.772 6.2608 116.679 6.2608C116.332 6.2608 116.111 6.3764 115.874 6.63277C115.215 7.34781 114.683 8.20082 114.11 8.98765C113.597 9.6924 113.084 10.3991 112.573 11.1057M138.435 13.7067L142.082 17.6371H135.72L132.272 13.7533H129.216L128.162 17.6371H123.516L123.713 16.9445C124.185 15.2944 125.786 9.6747 126.389 7.55104C127.298 4.34128 129.367 2.78069 132.712 2.78069C135.884 2.78069 137.187 2.79001 138.026 2.79747C138.036 2.79747 139.22 2.80586 139.603 2.80586H140.151C141.449 2.80586 142.671 2.87578 143.353 3.74278C143.941 4.48858 144.028 5.72475 143.621 7.52028C142.726 11.4656 141.215 13.2788 138.436 13.7058M130.142 10.6545H135.75C137.996 10.6545 138.56 9.0902 138.982 7.34874L139.001 7.27137C139.119 6.78473 139.121 6.45005 139.009 6.30089C138.929 6.19834 138.774 6.18902 138.608 6.18902H133.174C131.801 6.18902 131.216 7.3273 130.895 8.18591C130.71 8.67441 130.326 10.0019 130.142 10.6545ZM146.452 2.75179L142.388 17.6362H146.98L151.069 2.75179H146.452ZM167.818 10.4485C167.506 9.8957 166.861 9.6757 165.786 9.46403C164.455 9.20113 157.908 8.00785 156.744 7.79623C156.944 7.15297 157.633 6.21605 159.151 6.21605C160.825 6.21605 162.498 6.20673 164.172 6.24122C164.265 6.24309 164.358 6.24495 164.451 6.24681C164.769 6.25334 165.088 6.25987 165.401 6.20953C166.181 6.08554 166.663 5.53457 166.984 4.83631C167.224 4.31425 167.41 3.89287 167.537 3.57777L167.837 2.83196H158.071C155.515 2.83196 153.523 3.91431 151.979 6.14054C150.787 7.85775 150.315 9.07994 150.577 9.7735C150.708 10.1175 150.982 10.2471 151.187 10.2919C151.506 10.3683 152.852 10.6154 154.577 10.9305L154.718 10.9556C157.067 11.3854 159.991 11.9196 161.458 12.2356C161.764 12.3018 161.805 12.5386 161.786 12.7269C161.719 13.3534 160.89 14.281 159.317 14.281H150.174L148.926 16.2024C148.817 16.3954 148.642 16.9389 148.849 17.3108C148.918 17.4339 149.095 17.6371 149.489 17.6371H161.11C162.947 17.6371 166.237 17.0461 167.61 13.0849C168.057 11.7947 168.119 10.9827 167.818 10.4504" fill="white"/>
<path d="M43.6429 8.47234H8.99186C7.77767 8.47234 7.13789 7.08608 7.97098 6.24425C10.6912 3.49503 15.9668 1.63052 22.0277 1.63052C27.5261 1.63052 32.3764 3.16501 35.2614 5.50124C35.463 5.66439 35.718 5.75575 35.9822 5.75575H41.6831C38.0479 2.3409 30.6117 0 22.0277 0C9.86177 0 0 4.70044 0 10.5C0 10.7312 0.0174903 10.9615 0.0487888 11.1889H36.0954C37.1448 11.1889 37.8205 12.2564 37.3243 13.1383C35.2955 16.748 29.2143 19.3695 22.0267 19.3695C15.629 19.3695 10.1076 17.2924 7.54109 14.2896C7.33212 14.0454 7.0173 13.9055 6.6859 13.9055H1.18474C4.15165 18.0326 12.362 21.0009 22.0267 21.0009C34.1917 21.0009 44.0544 16.2996 44.0544 10.5009C44.0544 9.8073 43.9117 9.12865 43.6429 8.47234Z" fill="white"/>
</g>
</svg>
