<svg width="28" height="28" viewBox="0 0 28 28" fill="none" xmlns="http://www.w3.org/2000/svg">
<path d="M2.50697 6.69286C1.98511 6.52481 1.67446 6.40887 1.23026 6.04832C-0.42141 4.73384 -0.382088 2.06476 1.26228 0.761816C1.86336 0.28553 2.46387 0.0845388 3.21929 0.00809042C3.78714 -0.0469401 4.66561 0.185947 5.14353 0.488345C7.71992 2.11854 7.25579 5.96399 4.21183 6.69286C4.21142 6.70282 4.21102 6.71282 4.21061 6.72283L4.21135 11.2758C4.21121 12.5903 4.45004 12.8651 5.77282 12.8731L10.9217 12.8733C11.5309 12.8734 12.1825 12.8604 12.7872 12.8733C12.8046 12.5789 12.7875 12.0714 12.7874 11.7587L12.787 9.47466C12.7865 8.73173 12.8014 7.98934 12.7906 7.2486C12.7837 6.77424 12.9257 6.74761 12.5385 6.62861C10.4004 5.97148 9.52954 3.48149 10.7452 1.59385C11.9039 -0.203779 14.4413 -0.521822 15.9918 0.975928C17.8971 2.81641 17.1062 6.12657 14.461 6.69286L14.4614 12.156C14.4619 12.3806 14.4724 12.6529 14.461 12.8733C14.5885 12.8701 14.7209 12.8726 14.8488 12.8728L21.5104 12.8742C22.7577 12.8753 23.0198 12.7595 23.0202 11.4839L23.0203 8.16602C20.7993 7.58381 19.7061 5.14261 20.8777 3.15749C22.4221 0.540817 26.4085 1.11058 27.1545 4.12348C27.6039 5.90184 26.5327 7.72545 24.7423 8.16602V11.0224C24.7419 12.4421 24.6789 13.5865 23.2027 14.3088C22.5404 14.5901 22.0626 14.5396 21.3633 14.5387L14.461 14.5382C14.4431 15.1603 14.4608 15.8838 14.4608 16.512L14.461 20.6359C14.6702 20.7266 14.8828 20.7829 15.1016 20.8799C16.7758 21.6225 17.4882 23.7054 16.7301 25.3488C15.4551 28.1589 11.4082 27.9066 10.3914 25.0143C9.81643 23.3787 10.6026 21.5731 12.1764 20.8626C12.3779 20.7716 12.5803 20.7105 12.7872 20.6359C12.7667 19.5181 12.7872 18.3303 12.7873 17.2078L12.7872 15.4393C12.7871 15.1417 12.7783 14.834 12.7872 14.5382L5.92518 14.5377C4.67738 14.5368 4.20468 14.5441 4.21079 15.9387L4.21174 19.3479C4.21179 19.7476 4.22801 20.2452 4.21183 20.6359C5.31033 20.8236 6.25495 21.7302 6.63738 22.7509C7.30041 24.5208 6.3874 26.4734 4.61071 27.1206C2.26255 27.9905 -0.294775 26.0855 0.0276413 23.5387C0.214603 22.0618 1.2161 21.1214 2.54609 20.6359C2.52664 19.5654 2.54741 18.4317 2.54746 17.357L2.54583 16.1459C2.54341 15.0542 2.5158 14.5229 3.29547 13.6497C2.54676 12.895 2.5058 12.2276 2.50668 11.2371L2.50697 6.69286ZM13.5105 1.68098C12.5496 1.74788 11.8264 2.58382 11.8986 3.5444C11.9707 4.505 12.8106 5.22352 13.7708 5.14608C14.7236 5.06928 15.4354 4.23728 15.3638 3.28411C15.2921 2.33093 14.4641 1.61461 13.5105 1.68098ZM23.7893 3.17732C22.8427 3.20812 22.1004 4.0006 22.1314 4.94719C22.1625 5.89378 22.9552 6.63586 23.9018 6.60454C24.848 6.57321 25.5897 5.78091 25.5586 4.83471C25.5276 3.8885 24.7355 3.14654 23.7893 3.17732ZM3.20203 1.71013C2.25401 1.82158 1.5764 2.68126 1.6895 3.62908C1.80259 4.57691 2.66347 5.25299 3.61109 5.13826C4.55637 5.0238 5.23043 4.16552 5.11767 3.22003C5.00482 2.27454 4.14772 1.59896 3.20203 1.71013ZM3.33888 22.2138C2.39199 22.254 1.65623 23.0529 1.69396 23.9999C1.7317 24.9469 2.5287 25.6847 3.47578 25.6495C4.42637 25.614 5.16754 24.8134 5.12964 23.863C5.09177 22.9125 4.28926 22.1734 3.33888 22.2138ZM13.4657 22.2164C12.5161 22.31 11.8216 23.1546 11.9133 24.1043C12.0049 25.0539 12.8481 25.7501 13.798 25.6603C14.7505 25.5703 15.4491 24.7242 15.3572 23.7719C15.2652 22.8195 14.4178 22.1227 13.4657 22.2164Z" fill="#3A7BC0"/>
</svg>
