<svg width="23" height="23" viewBox="0 0 23 23" fill="none" xmlns="http://www.w3.org/2000/svg">
<path d="M11.4451 6.19512C10.4068 6.19512 9.39173 6.50303 8.52837 7.0799C7.66502 7.65678 6.99211 8.47672 6.59475 9.43603C6.19739 10.3953 6.09342 11.4509 6.296 12.4693C6.49857 13.4877 6.99858 14.4232 7.73281 15.1574C8.46703 15.8917 9.40249 16.3917 10.4209 16.5942C11.4393 16.7968 12.4949 16.6928 13.4542 16.2955C14.4135 15.8981 15.2335 15.2252 15.8103 14.3619C16.3872 13.4985 16.6951 12.4835 16.6951 11.4451C16.6937 10.0532 16.1401 8.71866 15.1558 7.73441C14.1716 6.75015 12.8371 6.19657 11.4451 6.19512ZM11.4451 14.9451C10.7529 14.9451 10.0762 14.7398 9.50062 14.3553C8.92505 13.9707 8.47645 13.4241 8.21154 12.7845C7.94663 12.145 7.87732 11.4412 8.01237 10.7623C8.14742 10.0834 8.48076 9.45973 8.97024 8.97024C9.45973 8.48076 10.0834 8.14742 10.7623 8.01237C11.4412 7.87732 12.145 7.94663 12.7845 8.21154C13.4241 8.47645 13.9707 8.92505 14.3553 9.50062C14.7398 10.0762 14.9451 10.7529 14.9451 11.4451C14.9451 12.3734 14.5764 13.2636 13.92 13.92C13.2636 14.5764 12.3734 14.9451 11.4451 14.9451ZM21.0701 11.6814C21.0745 11.5239 21.0745 11.3664 21.0701 11.2089L22.702 9.17012C22.7876 9.06307 22.8468 8.93743 22.8749 8.8033C22.903 8.66918 22.8992 8.53033 22.8639 8.39793C22.5963 7.39234 22.1962 6.42683 21.6739 5.52684C21.6055 5.40906 21.5105 5.30887 21.3966 5.23425C21.2827 5.15963 21.1529 5.11263 21.0176 5.09699L18.4232 4.80824C18.3153 4.69449 18.206 4.58512 18.0951 4.48012L17.7889 1.87918C17.7731 1.74379 17.726 1.61395 17.6511 1.50001C17.5763 1.38607 17.4759 1.29119 17.3579 1.22293C16.4576 0.701591 15.4922 0.301812 14.4868 0.0340245C14.3544 -0.00119758 14.2155 -0.00480008 14.0813 0.0235074C13.9472 0.0518148 13.8216 0.11124 13.7146 0.196993L11.6814 1.82012C11.5239 1.82012 11.3664 1.82012 11.2089 1.82012L9.17012 0.191525C9.06307 0.105959 8.93743 0.0467316 8.8033 0.0186149C8.66918 -0.00950184 8.53033 -0.00572226 8.39793 0.0296494C7.3925 0.297648 6.42705 0.697803 5.52684 1.21965C5.40906 1.28804 5.30887 1.38297 5.23425 1.4969C5.15963 1.61083 5.11263 1.74061 5.09699 1.8759L4.80824 4.47465C4.69449 4.5833 4.58512 4.69267 4.48012 4.80277L1.87918 5.10137C1.74379 5.11712 1.61395 5.16429 1.50001 5.2391C1.38607 5.31392 1.29119 5.41432 1.22293 5.53231C0.701591 6.43264 0.301812 7.39807 0.0340245 8.4034C-0.00119758 8.53588 -0.00480008 8.67478 0.0235074 8.80891C0.0518148 8.94304 0.11124 9.06864 0.196993 9.17559L1.82012 11.2089C1.82012 11.3664 1.82012 11.5239 1.82012 11.6814L0.191525 13.7201C0.105959 13.8272 0.0467316 13.9528 0.0186149 14.0869C-0.00950184 14.2211 -0.00572226 14.3599 0.0296494 14.4923C0.297169 15.4979 0.69735 16.4634 1.21965 17.3634C1.28804 17.4812 1.38297 17.5814 1.4969 17.656C1.61083 17.7306 1.74061 17.7776 1.8759 17.7932L4.47028 18.082C4.57892 18.1957 4.6883 18.3051 4.7984 18.4101L5.10137 21.0111C5.11712 21.1464 5.16429 21.2763 5.2391 21.3902C5.31392 21.5042 5.41432 21.599 5.53231 21.6673C6.43264 22.1886 7.39807 22.5884 8.4034 22.8562C8.53588 22.8914 8.67478 22.895 8.80891 22.8667C8.94304 22.8384 9.06864 22.779 9.17559 22.6932L11.2089 21.0701C11.3664 21.0745 11.5239 21.0745 11.6814 21.0701L13.7201 22.702C13.8272 22.7876 13.9528 22.8468 14.0869 22.8749C14.2211 22.903 14.3599 22.8992 14.4923 22.8639C15.4979 22.5963 16.4634 22.1962 17.3634 21.6739C17.4812 21.6055 17.5814 21.5105 17.656 21.3966C17.7306 21.2827 17.7776 21.1529 17.7932 21.0176L18.082 18.4232C18.1957 18.3153 18.3051 18.206 18.4101 18.0951L21.0111 17.7889C21.1464 17.7731 21.2763 17.726 21.3902 17.6511C21.5042 17.5763 21.599 17.4759 21.6673 17.3579C22.1886 16.4576 22.5884 15.4922 22.8562 14.4868C22.8914 14.3544 22.895 14.2155 22.8667 14.0813C22.8384 13.9472 22.779 13.8216 22.6932 13.7146L21.0701 11.6814ZM19.3092 10.9704C19.3278 11.2866 19.3278 11.6036 19.3092 11.9198C19.2961 12.1363 19.364 12.3499 19.4995 12.5192L21.0515 14.4584C20.8734 15.0244 20.6454 15.5734 20.3701 16.099L17.8982 16.379C17.683 16.4029 17.4842 16.5058 17.3404 16.6678C17.1299 16.9046 16.9057 17.1288 16.6689 17.3393C16.5069 17.4831 16.404 17.6819 16.3801 17.8972L16.1056 20.3668C15.58 20.6423 15.031 20.8703 14.465 21.0482L12.5246 19.4962C12.3694 19.3722 12.1765 19.3047 11.9778 19.3048H11.9253C11.6091 19.3234 11.2921 19.3234 10.9759 19.3048C10.7594 19.2918 10.5458 19.3596 10.3765 19.4951L8.43184 21.0482C7.86586 20.8702 7.31682 20.6421 6.79121 20.3668L6.51121 17.8982C6.48732 17.683 6.38443 17.4842 6.22246 17.3404C5.98567 17.1299 5.76144 16.9057 5.5509 16.6689C5.40711 16.5069 5.20835 16.404 4.99309 16.3801L2.5234 16.1045C2.24798 15.5789 2.01995 15.0299 1.84199 14.4639L3.39402 12.5236C3.52955 12.3543 3.59737 12.1407 3.58434 11.9242C3.56574 11.608 3.56574 11.291 3.58434 10.9748C3.59737 10.7583 3.52955 10.5447 3.39402 10.3754L1.84199 8.43184C2.02008 7.86586 2.24812 7.31682 2.5234 6.79121L4.99199 6.51121C5.20726 6.48732 5.40601 6.38443 5.54981 6.22246C5.76034 5.98567 5.98458 5.76144 6.22137 5.5509C6.38398 5.40701 6.48729 5.2078 6.51121 4.99199L6.78574 2.5234C7.31129 2.24798 7.86034 2.01995 8.42637 1.84199L10.3667 3.39402C10.536 3.52955 10.7496 3.59737 10.9661 3.58434C11.2822 3.56574 11.5992 3.56574 11.9154 3.58434C12.1319 3.59737 12.3455 3.52955 12.5148 3.39402L14.4584 1.84199C15.0244 2.02008 15.5734 2.24812 16.099 2.5234L16.379 4.99199C16.4029 5.20726 16.5058 5.40601 16.6678 5.54981C16.9046 5.76034 17.1288 5.98458 17.3393 6.22137C17.4831 6.38334 17.6819 6.48622 17.8972 6.51012L20.3668 6.78465C20.6423 7.3102 20.8703 7.85925 21.0482 8.42527L19.4962 10.3656C19.3594 10.5363 19.2915 10.7521 19.3059 10.9704H19.3092Z" fill="#3A7BC0"/>
</svg>
