<svg width="21" height="26" viewBox="0 0 21 26" fill="none" xmlns="http://www.w3.org/2000/svg">
<path d="M4.53633 4.44458L4.5391 4.47012C4.54725 4.55191 4.53837 4.77227 4.5379 4.86504L4.53593 5.67588C4.53572 6.39659 4.72692 7.67954 3.5964 7.69018C3.0872 7.69497 2.55929 7.67187 2.04277 7.67372C0.940443 7.68563 0.500822 7.49384 0.502529 6.2915L0.503502 2.02557C0.501774 1.16007 0.498635 0.605198 1.53926 0.52194L2.87699 0.521606C4.28977 0.520687 4.53796 0.579015 4.53714 2.16405L4.53633 3.57481C5.00306 3.60899 5.61992 3.58033 6.09941 3.57481C6.52532 2.05759 7.52063 1.84635 8.87501 1.84748L11.3494 1.847C12.7809 1.84654 13.4917 2.2187 13.9533 3.57481C14.4558 3.58594 14.9932 3.57273 15.5001 3.57481L15.4997 2.32829C15.4997 1.64716 15.4167 0.731649 16.3185 0.558322C16.8163 0.462669 18.0637 0.510591 18.591 0.52296C19.6269 0.571348 19.5766 1.53164 19.57 2.2575L19.5671 5.83926C19.5676 7.35153 19.5673 7.67449 17.9352 7.67275L16.8154 7.67334C15.502 7.6738 15.5 6.95468 15.4996 5.86812L15.5001 4.44458C14.9993 4.45494 14.4395 4.38724 13.9533 4.44458C13.7124 5.46843 13.1556 5.90424 12.2118 6.15624L12.2127 7.81009C12.213 9.50894 12.052 9.69971 10.4494 9.69482L10.4528 21.2358C10.8541 21.2506 11.3454 21.236 11.7548 21.236L14.2412 21.2358C14.6559 21.2357 15.0908 21.228 15.5035 21.2358L15.5038 19.7432C15.5021 18.5992 15.497 17.7505 17.043 17.8684C17.9075 17.8804 19.4534 17.5687 19.5567 18.7881C19.5802 19.1134 19.5708 19.4607 19.5709 19.7912V23.3384C19.5709 23.6517 19.6002 24.1779 19.5325 24.4591C19.3777 24.9254 18.9024 25.1287 18.4432 25.1319L17.4447 25.1328C15.7666 25.1324 15.5012 25.0185 15.5024 23.2936L15.5035 22.09L5.62135 22.0897C5.33041 22.0897 4.8029 22.1121 4.53981 22.09L4.539 23.9646C4.54205 24.5766 4.24367 25.1057 3.57626 25.1248C3.02633 25.1406 2.47293 25.1263 1.92248 25.1328C1.28703 25.14 0.528057 25.0114 0.507965 24.2085L0.50592 19.3817C0.504969 19.1871 0.488015 18.9205 0.51479 18.7325C0.663103 17.6914 1.99331 17.8523 2.76549 17.8719C4.35836 17.9121 4.51516 17.9996 4.54054 19.6383C4.54882 20.1729 4.53303 20.7038 4.53981 21.2358C6.22036 21.2605 7.94673 21.1791 9.61874 21.2358L9.61515 11.135C9.61515 10.673 9.60126 10.15 9.61526 9.69482L9.54712 9.69526C7.99028 9.70178 7.87719 9.33147 7.87741 7.88852L7.87642 6.15624C6.91658 6.11239 6.30402 5.3138 6.09941 4.44458H4.53633ZM1.43478 1.38349C1.3298 1.40291 1.32716 1.50598 1.32742 1.60281L1.32852 6.09503C1.32797 6.62386 1.19879 6.85564 1.80174 6.84323C2.26804 6.83362 3.1796 6.90275 3.59531 6.83826C3.74542 6.74712 3.68423 6.21201 3.68283 6.03841L3.68166 2.62454C3.68189 2.22443 3.69756 1.77487 3.6818 1.38349H1.43478ZM16.4028 1.38349C16.335 1.46785 16.3589 2.44397 16.3589 2.60717L16.3592 5.97534C16.3593 6.18973 16.3492 6.52522 16.359 6.72918C16.6568 6.93 18.5586 6.84747 18.6256 6.80345L18.7279 6.72918L18.7291 2.2058C18.7297 2.01686 18.8193 1.38913 18.5628 1.38804C17.8711 1.38509 17.0779 1.34405 16.4028 1.38349ZM8.14559 2.69605C6.37242 3.04347 6.63507 5.10792 7.89217 5.3054C8.80884 5.45116 8.7139 5.22857 8.71303 6.30341L8.71128 7.8383C8.70964 8.9338 8.54033 8.8216 9.55117 8.82028L10.7282 8.81945C10.9154 8.81929 11.148 8.81206 11.3307 8.82002C11.3797 8.62473 11.3714 8.47404 11.3715 8.27426L11.3707 6.51C11.3707 6.21968 11.3591 5.90535 11.3859 5.61684C11.4224 5.22307 11.951 5.36196 12.2271 5.27816C13.65 4.84643 13.3158 2.77598 11.8184 2.69612C10.5954 2.69644 9.36862 2.6928 8.14559 2.69605ZM2.67905 18.6933C1.15406 18.6867 1.33266 18.4946 1.33203 19.9609L1.33218 23.0411C1.33232 23.3308 1.30442 24.0426 1.38626 24.2845H2.35106C2.73791 24.2853 3.30759 24.2995 3.68528 24.2481C3.69596 24.0254 3.68537 23.7509 3.6853 23.5214L3.6854 20.0533C3.68538 19.8515 3.70526 18.904 3.64744 18.7879C3.47413 18.6424 2.89912 18.6918 2.67905 18.6933ZM16.6688 18.6933H16.4862L16.4063 18.8029C16.3311 19.0064 16.3622 19.8374 16.3624 20.1052L16.3625 23.2661C16.3625 23.5292 16.3449 24.0093 16.405 24.2492C16.4507 24.2814 18.1364 24.3148 18.4614 24.2845C18.6208 24.2803 18.7229 24.2971 18.7267 24.0964C18.7339 23.7127 18.7316 23.329 18.7316 22.9452L18.7325 19.5523C18.7328 19.4023 18.8047 18.8211 18.6554 18.7273C18.5457 18.6583 16.936 18.6929 16.6688 18.6933Z" fill="#3A7BC0" stroke="#3A7BC0"/>
</svg>
