<svg width="28" height="22" viewBox="0 0 28 22" fill="none" xmlns="http://www.w3.org/2000/svg">
<path d="M25.375 8.75039H23.987L20.125 4.88836C19.9631 4.72515 19.7703 4.59576 19.558 4.50769C19.3456 4.41963 19.1179 4.37466 18.888 4.37539H14.4375V1.75039L15.0063 1.75039C15.2383 1.75039 15.4609 1.65821 15.625 1.49411C15.7891 1.33002 15.8813 1.10746 15.8813 0.875395C15.8813 0.643331 15.7891 0.420771 15.625 0.256676C15.4609 0.0925821 15.2383 0.000394881 15.0063 0.000394881L12.125 0C11.8929 0 11.6704 0.0921872 11.5063 0.256281C11.3422 0.420376 11.25 0.642936 11.25 0.875C11.25 1.10706 11.3422 1.32962 11.5063 1.49372C11.6704 1.65781 11.8929 1.75 12.125 1.75L12.6875 1.75039V4.37539H6.125C5.66087 4.37539 5.21575 4.55977 4.88756 4.88796C4.55937 5.21615 4.375 5.66127 4.375 6.12539V11.8129H1.75V10.2504C1.75 10.0183 1.65781 9.79577 1.49372 9.63168C1.32962 9.46758 1.10706 9.37539 0.875 9.37539C0.642936 9.37539 0.420376 9.46758 0.256282 9.63168C0.0921872 9.79577 0 10.0183 0 10.2504V16.1879C0 16.42 0.0921872 16.6425 0.256282 16.8066C0.420376 16.9707 0.642936 17.0629 0.875 17.0629C1.10706 17.0629 1.32962 16.9707 1.49372 16.8066C1.65781 16.6425 1.75 16.42 1.75 16.1879V13.5629H4.375V15.8259C4.37427 16.0558 4.41924 16.2835 4.5073 16.4959C4.59536 16.7082 4.72476 16.901 4.88797 17.0629L9.1875 21.3624C9.34941 21.5256 9.54215 21.655 9.75452 21.7431C9.96688 21.8312 10.1946 21.8761 10.4245 21.8754H18.888C19.1179 21.8761 19.3456 21.8312 19.558 21.7431C19.7703 21.655 19.9631 21.5256 20.125 21.3624L23.987 17.5004H25.375C25.8391 17.5004 26.2842 17.316 26.6124 16.9878C26.9406 16.6596 27.125 16.2145 27.125 15.7504V10.5004C27.125 10.0363 26.9406 9.59115 26.6124 9.26296C26.2842 8.93477 25.8391 8.75039 25.375 8.75039ZM25.375 15.7504H23.625C23.5101 15.7503 23.3962 15.7729 23.29 15.8168C23.1838 15.8607 23.0873 15.9251 23.0059 16.0063L18.888 20.1254H10.4245L6.125 15.8259V6.12539H18.888L23.0059 10.2445C23.0873 10.3257 23.1838 10.3901 23.29 10.434C23.3962 10.4779 23.5101 10.5005 23.625 10.5004H25.375V15.7504Z" fill="#3A7BC0"/>
</svg>
