<svg width="52" height="52" viewBox="0 0 52 52" fill="none" xmlns="http://www.w3.org/2000/svg">
<path d="M7.78692 35.5344C6.20862 35.5422 5.21897 35.6551 3.88706 34.5326C2.46021 33.3301 2.47489 31.6974 2.47676 29.9828L2.4768 7.77786C2.47799 4.933 3.24134 2.56052 6.43329 2.27018C7.10229 2.21708 7.9751 2.26826 8.6619 2.26881L36.0374 2.26872C40.9685 2.2644 41.0337 4.40903 41.0344 8.62964L41.0332 12.8659H37.7962C37.7962 10.55 37.8199 8.1878 37.7962 5.87694C35.1799 5.926 32.4018 5.87721 29.7748 5.87721L13.7291 5.87694H6.29605C5.84132 6.38718 5.87357 6.60154 5.8722 7.31182L5.87313 28.4659C5.87321 30.9772 5.19547 32.1474 7.78692 32.0702V35.5344Z" fill="url(#paint0_linear_543_1140)"/>
<path d="M24.0036 13.0789C23.2128 13.1095 22.2282 13.0791 21.4204 13.0791L12.7278 13.0794C12.0633 13.0791 11.4299 13.0853 10.753 13.0506C8.87564 12.9927 8.49999 9.71859 10.714 9.3667L22.4072 9.36586C23.0061 9.366 24.2579 9.25712 24.7329 9.63806C25.9713 10.6311 25.5877 12.8149 24.0036 13.0789Z" fill="url(#paint1_linear_543_1140)"/>
<path d="M49.5096 38.5407C49.4792 39.0708 49.5082 39.9417 49.5086 40.4983L49.5114 44.4685C49.5133 45.1928 49.5676 46.1804 49.4392 46.8679C48.8994 49.7595 46.3831 49.7548 44.2753 49.755L16.5944 49.7557C14.4115 49.7594 11.6666 49.7406 11.3635 46.5991C11.3038 45.9799 11.3234 45.3155 11.3233 44.6915L11.3229 21.6963C11.3217 19.0467 11.6769 16.809 14.6171 16.5091L14.7739 16.507C17.0842 16.4813 19.4473 16.509 21.7628 16.5091L42.6922 16.5089C44.5591 16.5079 47.1081 16.113 48.5252 17.6067C49.5768 18.7152 49.5106 20.0049 49.5103 21.4389L49.5096 34.9029H14.503V38.5407H28.2626H49.5096ZM37.8189 21.817C36.4714 21.8543 35.7333 22.108 35.7337 23.6794C35.734 25.1367 35.7216 26.5997 35.7408 28.0571C35.7614 29.795 37.2716 29.5788 38.3762 29.5752L41.1974 29.5711C41.869 29.57 43.0512 29.4537 43.1143 28.4778C43.2209 26.8276 43.1305 25.1478 43.1588 23.4911C43.1903 21.6433 41.6317 21.8139 40.3526 21.8156L37.8189 21.817ZM14.503 42.057V45.5089L27.8125 45.5104C28.608 45.5108 29.5944 45.6664 30.2023 45.06C31.0542 43.9688 30.6657 42.2412 29.217 42.0772C28.7025 42.0191 28.0993 42.0544 27.5736 42.055L14.503 42.057Z" fill="url(#paint2_linear_543_1140)"/>
<defs>
<linearGradient id="paint0_linear_543_1140" x1="2.47656" y1="18.8936" x2="41.0344" y2="18.8936" gradientUnits="userSpaceOnUse">
<stop stop-color="#20365A"/>
<stop offset="1" stop-color="#418FDE"/>
</linearGradient>
<linearGradient id="paint1_linear_543_1140" x1="9.19531" y1="11.2221" x2="25.4674" y2="11.2221" gradientUnits="userSpaceOnUse">
<stop stop-color="#20365A"/>
<stop offset="1" stop-color="#418FDE"/>
</linearGradient>
<linearGradient id="paint2_linear_543_1140" x1="11.3203" y1="33.1084" x2="49.5244" y2="33.1084" gradientUnits="userSpaceOnUse">
<stop stop-color="#20365A"/>
<stop offset="1" stop-color="#418FDE"/>
</linearGradient>
</defs>
</svg>
