<svg width="52" height="52" viewBox="0 0 52 52" fill="none" xmlns="http://www.w3.org/2000/svg">
<path d="M20.9467 13.5468L28.2489 13.5474C32.4746 13.5462 33.5015 12.5333 35.4102 18.2059C35.6721 18.9845 35.9932 19.7827 36.1935 20.5839C36.8368 20.6388 38.5551 20.2978 39.0145 20.9346C39.6016 21.7485 39.8733 24.5532 37.9487 24.4986C37.9484 25.276 37.9219 25.9941 37.9487 26.7777C36.4425 26.7744 34.5226 26.6519 33.057 27.0099C32.0481 27.2565 30.6963 29.4239 31.0212 30.879C31.3095 31.3427 33.4422 31.1844 33.9399 31.1845C35.2401 31.1848 36.4987 31.4533 37.3111 29.8391C38.4681 27.5406 37.9561 30.0021 37.9497 31.8434L37.9484 34.904C37.9443 38.8482 37.4409 38.7753 34.3396 38.9067C32.7321 38.9748 31.9908 37.3367 32.2757 35.4007C31.8861 35.4072 31.4874 35.4011 31.0968 35.4007H20.2169C20.2293 38.4405 19.6805 38.9551 17.3469 38.9119C16.8541 38.9027 16.3458 39.0049 15.8524 38.8722C13.9747 38.3668 14.4654 34.5999 14.4607 32.7191C14.4593 32.1741 14.3509 29.0685 14.5263 28.7915C15.0553 29.0805 14.912 31.034 16.7068 31.146C17.9579 31.224 20.3486 31.3476 21.5783 31.0115C21.9509 28.6463 20.0558 26.6343 18.1934 26.7666C16.9754 26.8531 15.6685 26.6826 14.4582 26.7777C14.5061 25.9469 14.6569 25.3023 14.8181 24.4986C14.4379 24.511 13.957 24.534 13.5863 24.4986C13.1451 23.8431 13.1751 23.1497 13.1768 22.3711C13.1804 20.6824 13.31 20.4646 14.6122 20.5516C15.1592 20.5882 15.7786 20.5235 16.3567 20.5839C16.6432 19.5682 17.136 18.3797 17.4728 17.3683C18.4802 14.6803 18.205 13.6719 20.9467 13.5468Z" fill="url(#paint0_linear_543_1145)"/>
<path d="M20.9467 13.5468L28.2489 13.5474C32.4746 13.5462 33.5015 12.5333 35.4102 18.2059C35.6721 18.9845 35.9932 19.7827 36.1935 20.5839C36.8368 20.6388 38.5551 20.2978 39.0145 20.9346C39.6016 21.7485 39.8733 24.5532 37.9487 24.4986C37.9484 25.276 37.9219 25.9941 37.9487 26.7777C36.4425 26.7744 34.5226 26.6519 33.057 27.0099C32.0481 27.2565 30.6963 29.4239 31.0212 30.879C31.3095 31.3427 33.4422 31.1844 33.9399 31.1845C35.2401 31.1848 36.4987 31.4533 37.3111 29.8391C38.4681 27.5406 37.9561 30.0021 37.9497 31.8434L37.9484 34.904C37.9443 38.8482 37.4409 38.7753 34.3396 38.9067C32.7321 38.9748 31.9908 37.3367 32.2757 35.4007C31.8861 35.4072 31.4874 35.4011 31.0968 35.4007H20.2169C20.2293 38.4405 19.6805 38.9551 17.3469 38.9119C16.8541 38.9027 16.3458 39.0049 15.8524 38.8722C13.9747 38.3668 14.4654 34.5999 14.4607 32.7191C14.4593 32.1741 14.3509 29.0685 14.5263 28.7915C15.0553 29.0805 14.912 31.034 16.7068 31.146C17.9579 31.224 20.3486 31.3476 21.5783 31.0115C21.9509 28.6463 20.0558 26.6343 18.1934 26.7666C16.9754 26.8531 15.6685 26.6826 14.4582 26.7777C14.5061 25.9469 14.6569 25.3023 14.8181 24.4986C14.4379 24.511 13.957 24.534 13.5863 24.4986C13.1451 23.8431 13.1751 23.1497 13.1768 22.3711C13.1804 20.6824 13.31 20.4646 14.6122 20.5516C15.1592 20.5882 15.7786 20.5235 16.3567 20.5839C16.6432 19.5682 17.136 18.3797 17.4728 17.3683C18.4802 14.6803 18.205 13.6719 20.9467 13.5468Z" fill="url(#paint1_linear_543_1145)"/>
<path d="M20.2176 16.6914H32.3747C32.8785 17.9973 33.822 20.5467 34.1557 21.8343H32.2764H18.3008C18.7963 20.449 19.644 17.8169 20.2176 16.6914Z" fill="#FEFEFE"/>
<path d="M25.4732 3.19922C26.1691 3.39187 28.5104 6.52305 29.0646 7.25297C28.3834 8.21849 25.8418 11.2486 25.6412 11.2839C25.4034 11.058 25.4623 9.60859 25.4732 9.22429C19.7241 9.21958 16.1352 8.58816 11.5802 14.6059C6.33727 21.5324 6.89525 32.8573 12.3756 39.2843C14.3938 41.6512 17.7447 43.857 20.5349 43.7483V45.8525V48.0216C19.6567 47.8195 18.7537 47.7471 17.8685 47.552C9.24852 45.6539 3.70186 34.2583 4.70216 23.3838C5.83221 11.7603 13.8344 5.00338 22.4713 4.99652L25.4732 4.99775C25.463 4.41914 25.4725 3.78206 25.4732 3.19922Z" fill="url(#paint2_linear_543_1145)"/>
<path d="M25.4732 3.19922C26.1691 3.39187 28.5104 6.52305 29.0646 7.25297C28.3834 8.21849 25.8418 11.2486 25.6412 11.2839C25.4034 11.058 25.4623 9.60859 25.4732 9.22429C19.7241 9.21958 16.1352 8.58816 11.5802 14.6059C6.33727 21.5324 6.89525 32.8573 12.3756 39.2843C14.3938 41.6512 17.7447 43.857 20.5349 43.7483V45.8525V48.0216C19.6567 47.8195 18.7537 47.7471 17.8685 47.552C9.24852 45.6539 3.70186 34.2583 4.70216 23.3838C5.83221 11.7603 13.8344 5.00338 22.4713 4.99652L25.4732 4.99775C25.463 4.41914 25.4725 3.78206 25.4732 3.19922Z" fill="url(#paint3_linear_543_1145)"/>
<path d="M44.3093 31.9335C45.3886 31.9083 46.5242 31.9315 47.608 31.9335C47.398 32.7403 47.2425 33.5544 47.0145 34.3438C44.6291 42.5951 38.2152 48.0983 31.3968 47.8762C30.249 47.8386 29.0704 47.9857 27.9294 47.8749V49.8983C27.371 49.6997 27.1112 49.2885 26.6969 48.7805C25.9163 47.7985 25.1107 46.8108 24.3125 45.8519C25.5792 44.6495 26.6962 42.6427 27.9294 41.5572C27.9805 42.2298 27.9439 43.0608 27.9294 43.7478C30.7972 43.894 33.8493 43.9839 36.5118 42.5506C40.4962 40.4059 42.7634 36.9435 44.3093 31.9335Z" fill="#0F6C76"/>
<path d="M44.3093 31.9335C45.3886 31.9083 46.5242 31.9315 47.608 31.9335C47.398 32.7403 47.2425 33.5544 47.0145 34.3438C44.6291 42.5951 38.2152 48.0983 31.3968 47.8762C30.249 47.8386 29.0704 47.9857 27.9294 47.8749V49.8983C27.371 49.6997 27.1112 49.2885 26.6969 48.7805C25.9163 47.7985 25.1107 46.8108 24.3125 45.8519C25.5792 44.6495 26.6962 42.6427 27.9294 41.5572C27.9805 42.2298 27.9439 43.0608 27.9294 43.7478C30.7972 43.894 33.8493 43.9839 36.5118 42.5506C40.4962 40.4059 42.7634 36.9435 44.3093 31.9335Z" fill="url(#paint4_linear_543_1145)"/>
<path d="M32.373 5C40.5591 5.95421 47.7501 14.5321 47.988 25.3151C48.0018 25.9329 48.0682 26.9431 48.0073 27.5306C46.9638 27.5286 45.8848 27.5604 44.8474 27.5306C44.9633 17.2116 39.9527 10.6859 32.373 8.88995C32.3239 7.89328 32.3747 6.05324 32.373 5Z" fill="url(#paint5_linear_543_1145)"/>
<path d="M32.373 5C40.5591 5.95421 47.7501 14.5321 47.988 25.3151C48.0018 25.9329 48.0682 26.9431 48.0073 27.5306C46.9638 27.5286 45.8848 27.5604 44.8474 27.5306C44.9633 17.2116 39.9527 10.6859 32.373 8.88995C32.3239 7.89328 32.3747 6.05324 32.373 5Z" fill="url(#paint6_linear_543_1145)"/>
<defs>
<linearGradient id="paint0_linear_543_1145" x1="26.3972" y1="38.9363" x2="26.0297" y2="13.5525" gradientUnits="userSpaceOnUse">
<stop stop-color="#10756E"/>
<stop offset="1" stop-color="#05B986"/>
</linearGradient>
<linearGradient id="paint1_linear_543_1145" x1="13.1758" y1="26.2087" x2="39.4481" y2="26.2087" gradientUnits="userSpaceOnUse">
<stop stop-color="#20365A"/>
<stop offset="1" stop-color="#418FDE"/>
</linearGradient>
<linearGradient id="paint2_linear_543_1145" x1="14.5026" y1="47.1627" x2="19.9073" y2="2.66528" gradientUnits="userSpaceOnUse">
<stop stop-color="#165B6D"/>
<stop offset="1" stop-color="#06DB94"/>
</linearGradient>
<linearGradient id="paint3_linear_543_1145" x1="4.58594" y1="25.6104" x2="29.0646" y2="25.6104" gradientUnits="userSpaceOnUse">
<stop stop-color="#20365A"/>
<stop offset="1" stop-color="#418FDE"/>
</linearGradient>
<linearGradient id="paint4_linear_543_1145" x1="24.3125" y1="40.9101" x2="47.608" y2="40.9101" gradientUnits="userSpaceOnUse">
<stop stop-color="#20365A"/>
<stop offset="1" stop-color="#418FDE"/>
</linearGradient>
<linearGradient id="paint5_linear_543_1145" x1="38.3823" y1="25.2351" x2="43.9301" y2="8.61768" gradientUnits="userSpaceOnUse">
<stop stop-color="#138674"/>
<stop offset="1" stop-color="#04D091"/>
</linearGradient>
<linearGradient id="paint6_linear_543_1145" x1="32.3516" y1="16.2717" x2="48.0326" y2="16.2717" gradientUnits="userSpaceOnUse">
<stop stop-color="#20365A"/>
<stop offset="1" stop-color="#418FDE"/>
</linearGradient>
</defs>
</svg>
